<svg width="195" height="46" viewBox="0 0 195 46" fill="none" xmlns="http://www.w3.org/2000/svg">
<rect x="0.5" y="0.5" width="194" height="45" rx="22.5" stroke="black"/>
<path d="M29.6164 30V16.9091H34.6278C35.5738 16.9091 36.36 17.0582 36.9864 17.3565C37.6171 17.6506 38.088 18.0533 38.3991 18.5646C38.7144 19.076 38.8721 19.6555 38.8721 20.3033C38.8721 20.8359 38.7698 21.2919 38.5653 21.6712C38.3607 22.0462 38.0858 22.3509 37.7407 22.5852C37.3955 22.8196 37.0099 22.9879 36.5837 23.0902V23.218C37.0482 23.2436 37.4935 23.3864 37.9197 23.6463C38.3501 23.902 38.7016 24.2642 38.9743 24.733C39.2471 25.2017 39.3834 25.7685 39.3834 26.4332C39.3834 27.1108 39.2194 27.7202 38.8912 28.2614C38.5631 28.7983 38.0688 29.2223 37.4083 29.5334C36.7478 29.8445 35.9168 30 34.9154 30H29.6164ZM31.9878 28.0185H34.5383C35.3991 28.0185 36.0191 27.8544 36.3983 27.5263C36.7819 27.1939 36.9736 26.7678 36.9736 26.2479C36.9736 25.8601 36.8778 25.5107 36.686 25.1996C36.4942 24.8842 36.2215 24.6371 35.8678 24.4581C35.5141 24.2749 35.0922 24.1832 34.6022 24.1832H31.9878V28.0185ZM31.9878 22.4766H34.3337C34.7428 22.4766 35.1114 22.402 35.4395 22.2528C35.7677 22.0994 36.0255 21.8842 36.213 21.6072C36.4047 21.326 36.5006 20.9936 36.5006 20.6101C36.5006 20.103 36.3216 19.6854 35.9637 19.3572C35.61 19.0291 35.0837 18.8651 34.3849 18.8651H31.9878V22.4766ZM44.1695 30.1982C43.5473 30.1982 42.9869 30.0874 42.4884 29.8658C41.9941 29.6399 41.602 29.3075 41.3122 28.8686C41.0267 28.4297 40.884 27.8885 40.884 27.245C40.884 26.6911 40.9862 26.233 41.1908 25.8707C41.3953 25.5085 41.6744 25.2188 42.0281 25.0014C42.3818 24.7841 42.7803 24.62 43.2235 24.5092C43.6709 24.3942 44.1333 24.3111 44.6105 24.2599C45.1858 24.2003 45.6524 24.147 46.0104 24.1001C46.3683 24.049 46.6283 23.9723 46.7902 23.87C46.9564 23.7635 47.0395 23.5994 47.0395 23.3778V23.3395C47.0395 22.858 46.8968 22.4851 46.6112 22.2209C46.3257 21.9567 45.9145 21.8246 45.3776 21.8246C44.8108 21.8246 44.3612 21.9482 44.0289 22.1953C43.7007 22.4425 43.4791 22.7344 43.3641 23.071L41.2036 22.7642C41.374 22.1676 41.6553 21.669 42.0473 21.2685C42.4394 20.8636 42.9188 20.5611 43.4855 20.3608C44.0523 20.1562 44.6787 20.054 45.3648 20.054C45.8378 20.054 46.3087 20.1094 46.7774 20.2202C47.2462 20.331 47.6744 20.5142 48.0622 20.7699C48.45 21.0213 48.7611 21.3643 48.9955 21.799C49.2341 22.2337 49.3534 22.777 49.3534 23.429V30H47.129V28.6513H47.0523C46.9117 28.924 46.7135 29.1797 46.4578 29.4183C46.2064 29.6527 45.8889 29.8423 45.5054 29.9872C45.1262 30.1278 44.6808 30.1982 44.1695 30.1982ZM44.7703 28.4979C45.2348 28.4979 45.6375 28.4062 45.9784 28.223C46.3193 28.0355 46.5814 27.7884 46.7646 27.4815C46.9521 27.1747 47.0459 26.8402 47.0459 26.478V25.321C46.9735 25.3807 46.8499 25.4361 46.6752 25.4872C46.5047 25.5384 46.3129 25.5831 46.0999 25.6214C45.8868 25.6598 45.6759 25.6939 45.4671 25.7237C45.2583 25.7536 45.0771 25.7791 44.9237 25.8004C44.5786 25.8473 44.2696 25.924 43.9969 26.0305C43.7242 26.1371 43.509 26.2862 43.3513 26.478C43.1936 26.6655 43.1148 26.9084 43.1148 27.2067C43.1148 27.6328 43.2703 27.9545 43.5814 28.1719C43.8925 28.3892 44.2888 28.4979 44.7703 28.4979ZM55.9628 30.1918C54.9827 30.1918 54.1411 29.9766 53.4379 29.5462C52.7391 29.1158 52.2 28.5213 51.8208 27.7628C51.4458 27 51.2583 26.1222 51.2583 25.1293C51.2583 24.1321 51.45 23.2521 51.8335 22.4893C52.2171 21.7223 52.7583 21.1257 53.4571 20.6996C54.1602 20.2692 54.9912 20.054 55.95 20.054C56.7469 20.054 57.4521 20.201 58.0658 20.495C58.6837 20.7848 59.1759 21.196 59.5423 21.7287C59.9088 22.2571 60.1176 22.875 60.1688 23.5824H57.9571C57.8676 23.1094 57.6546 22.7152 57.3179 22.3999C56.9855 22.0803 56.5402 21.9205 55.982 21.9205C55.509 21.9205 55.0935 22.0483 54.7355 22.304C54.3776 22.5554 54.0985 22.9176 53.8982 23.3906C53.7021 23.8636 53.6041 24.4304 53.6041 25.0909C53.6041 25.7599 53.7021 26.3352 53.8982 26.8168C54.0942 27.294 54.3691 27.6626 54.7227 27.9226C55.0807 28.1783 55.5004 28.3061 55.982 28.3061C56.3229 28.3061 56.6276 28.2422 56.896 28.1143C57.1688 27.9822 57.3968 27.7926 57.58 27.5455C57.7632 27.2983 57.8889 26.9979 57.9571 26.6442H60.1688C60.1134 27.3388 59.9088 27.9545 59.5551 28.4915C59.2014 29.0241 58.7199 29.4418 58.1105 29.7443C57.5012 30.0426 56.7852 30.1918 55.9628 30.1918ZM64.1782 26.919L64.1718 24.1257H64.5425L68.0709 20.1818H70.7748L66.4346 25.0142H65.9552L64.1782 26.919ZM62.0688 30V16.9091H64.3827V30H62.0688ZM68.2307 30L65.0347 25.532L66.5944 23.902L70.9985 30H68.2307ZM81.6844 20.1818V21.9716H76.0402V20.1818H81.6844ZM77.4337 17.8295H79.7476V27.0469C79.7476 27.358 79.7945 27.5966 79.8882 27.7628C79.9862 27.9247 80.1141 28.0355 80.2718 28.0952C80.4294 28.1548 80.6041 28.1847 80.7959 28.1847C80.9408 28.1847 81.0729 28.174 81.1922 28.1527C81.3158 28.1314 81.4095 28.1122 81.4735 28.0952L81.8634 29.9041C81.7398 29.9467 81.5629 29.9936 81.3328 30.0447C81.107 30.0959 80.83 30.1257 80.5019 30.1342C79.9223 30.1513 79.4003 30.0639 78.9358 29.8722C78.4713 29.6761 78.1027 29.3736 77.83 28.9645C77.5615 28.5554 77.4294 28.044 77.4337 27.4304V17.8295ZM87.7968 30.1918C86.838 30.1918 86.007 29.9808 85.3039 29.5589C84.6008 29.1371 84.0553 28.5469 83.6675 27.7884C83.284 27.0298 83.0922 26.1435 83.0922 25.1293C83.0922 24.1151 83.284 23.2266 83.6675 22.4638C84.0553 21.701 84.6008 21.1087 85.3039 20.6868C86.007 20.2649 86.838 20.054 87.7968 20.054C88.7556 20.054 89.5866 20.2649 90.2897 20.6868C90.9928 21.1087 91.5361 21.701 91.9197 22.4638C92.3074 23.2266 92.5013 24.1151 92.5013 25.1293C92.5013 26.1435 92.3074 27.0298 91.9197 27.7884C91.5361 28.5469 90.9928 29.1371 90.2897 29.5589C89.5866 29.9808 88.7556 30.1918 87.7968 30.1918ZM87.8096 28.3381C88.3295 28.3381 88.7641 28.1953 89.1135 27.9098C89.463 27.62 89.7229 27.2322 89.8934 26.7464C90.0681 26.2607 90.1555 25.7195 90.1555 25.1229C90.1555 24.522 90.0681 23.9787 89.8934 23.4929C89.7229 23.0028 89.463 22.6129 89.1135 22.3232C88.7641 22.0334 88.3295 21.8885 87.8096 21.8885C87.2769 21.8885 86.8337 22.0334 86.48 22.3232C86.1306 22.6129 85.8685 23.0028 85.6938 23.4929C85.5233 23.9787 85.4381 24.522 85.4381 25.1229C85.4381 25.7195 85.5233 26.2607 85.6938 26.7464C85.8685 27.2322 86.1306 27.62 86.48 27.9098C86.8337 28.1953 87.2769 28.3381 87.8096 28.3381ZM103.833 20.1818V21.9716H98.1887V20.1818H103.833ZM99.5821 17.8295H101.896V27.0469C101.896 27.358 101.943 27.5966 102.037 27.7628C102.135 27.9247 102.263 28.0355 102.42 28.0952C102.578 28.1548 102.753 28.1847 102.944 28.1847C103.089 28.1847 103.221 28.174 103.341 28.1527C103.464 28.1314 103.558 28.1122 103.622 28.0952L104.012 29.9041C103.888 29.9467 103.711 29.9936 103.481 30.0447C103.255 30.0959 102.978 30.1257 102.65 30.1342C102.071 30.1513 101.549 30.0639 101.084 29.8722C100.62 29.6761 100.251 29.3736 99.9784 28.9645C99.71 28.5554 99.5779 28.044 99.5821 27.4304V17.8295ZM109.945 30.1918C108.986 30.1918 108.155 29.9808 107.452 29.5589C106.749 29.1371 106.204 28.5469 105.816 27.7884C105.432 27.0298 105.241 26.1435 105.241 25.1293C105.241 24.1151 105.432 23.2266 105.816 22.4638C106.204 21.701 106.749 21.1087 107.452 20.6868C108.155 20.2649 108.986 20.054 109.945 20.054C110.904 20.054 111.735 20.2649 112.438 20.6868C113.141 21.1087 113.685 21.701 114.068 22.4638C114.456 23.2266 114.65 24.1151 114.65 25.1293C114.65 26.1435 114.456 27.0298 114.068 27.7884C113.685 28.5469 113.141 29.1371 112.438 29.5589C111.735 29.9808 110.904 30.1918 109.945 30.1918ZM109.958 28.3381C110.478 28.3381 110.913 28.1953 111.262 27.9098C111.611 27.62 111.871 27.2322 112.042 26.7464C112.217 26.2607 112.304 25.7195 112.304 25.1229C112.304 24.522 112.217 23.9787 112.042 23.4929C111.871 23.0028 111.611 22.6129 111.262 22.3232C110.913 22.0334 110.478 21.8885 109.958 21.8885C109.425 21.8885 108.982 22.0334 108.628 22.3232C108.279 22.6129 108.017 23.0028 107.842 23.4929C107.672 23.9787 107.587 24.522 107.587 25.1229C107.587 25.7195 107.672 26.2607 107.842 26.7464C108.017 27.2322 108.279 27.62 108.628 27.9098C108.982 28.1953 109.425 28.3381 109.958 28.3381ZM116.614 33.6818V20.1818H118.889V21.8054H119.024C119.143 21.5668 119.311 21.3132 119.528 21.0447C119.746 20.772 120.04 20.5398 120.411 20.348C120.781 20.152 121.254 20.054 121.83 20.054C122.588 20.054 123.272 20.2479 123.881 20.6357C124.495 21.0192 124.981 21.5881 125.339 22.3423C125.701 23.0923 125.882 24.0128 125.882 25.1037C125.882 26.1818 125.705 27.098 125.352 27.8523C124.998 28.6065 124.516 29.1818 123.907 29.5781C123.298 29.9744 122.607 30.1726 121.836 30.1726C121.274 30.1726 120.807 30.0788 120.436 29.8913C120.065 29.7038 119.767 29.478 119.541 29.2138C119.32 28.9453 119.147 28.6918 119.024 28.4531H118.928V33.6818H116.614ZM118.883 25.0909C118.883 25.7259 118.972 26.282 119.151 26.7592C119.335 27.2365 119.597 27.6094 119.938 27.8778C120.283 28.142 120.7 28.2741 121.19 28.2741C121.702 28.2741 122.13 28.1378 122.475 27.8651C122.82 27.5881 123.08 27.2109 123.255 26.7337C123.434 26.2521 123.524 25.7045 123.524 25.0909C123.524 24.4815 123.436 23.9403 123.261 23.4673C123.087 22.9943 122.827 22.6236 122.482 22.3551C122.136 22.0866 121.706 21.9524 121.19 21.9524C120.696 21.9524 120.276 22.0824 119.931 22.3423C119.586 22.6023 119.324 22.9666 119.145 23.4354C118.97 23.9041 118.883 24.456 118.883 25.0909Z" fill="#222222"/>
<path fill-rule="evenodd" clip-rule="evenodd" d="M155.005 21.5633L159.236 26.6417C159.594 27.0527 160.214 27.1026 160.632 26.754C161.05 26.4054 161.113 25.7863 160.773 25.3608L155.773 19.3608C155.583 19.1331 155.302 19.0015 155.005 19.0015C154.708 19.0015 154.426 19.1331 154.236 19.3608L149.236 25.3608C148.885 25.7856 148.944 26.4138 149.367 26.7665C149.79 27.1191 150.419 27.0636 150.773 26.6421L155.005 21.5633Z" fill="#333333"/>
</svg>
