<svg width="24" height="24" viewBox="0 0 24 24" fill="none" xmlns="http://www.w3.org/2000/svg">
    <path d="M21.5 12C21.5 6.75329 17.2467 2.5 12 2.5C6.75329 2.5 2.5 6.75329 2.5 12C2.5 16.7417 5.97399 20.6719 10.5156 21.3846V14.7461H8.10351V12H10.5156V9.90703C10.5156 7.52609 11.934 6.21094 14.1039 6.21094C15.143 6.21094 16.2305 6.39649 16.2305 6.39649V8.73438H15.0326C13.8525 8.73438 13.4844 9.46673 13.4844 10.2188V12H16.1191L15.698 14.7461H13.4844V21.3846C18.026 20.6719 21.5 16.7417 21.5 12Z" fill="#1877F2"/>
    <path d="M15.698 14.7461L16.1191 12H13.4844V10.2188C13.4844 9.46747 13.8525 8.73438 15.0326 8.73438H16.2305V6.39649C16.2305 6.39649 15.1433 6.21094 14.1039 6.21094C11.934 6.21094 10.5156 7.52609 10.5156 9.90703V12H8.10352V14.7461H10.5156V21.3846C11.4992 21.5385 12.5008 21.5385 13.4844 21.3846V14.7461H15.698Z" fill="white"/>
</svg>
