<svg width="24" height="24" viewBox="0 0 24 24" fill="none" xmlns="http://www.w3.org/2000/svg">
    <path d="M19.2459 3.50006H4.7541C4.42529 3.49672 4.10858 3.62395 3.87347 3.85384C3.63836 4.08372 3.50404 4.39749 3.5 4.72629V19.2766C3.50477 19.6049 3.63941 19.918 3.87444 20.1473C4.10947 20.3766 4.42577 20.5034 4.7541 20.5001H19.2459C19.5747 20.5027 19.8912 20.375 20.1262 20.145C20.3612 19.9149 20.4956 19.6013 20.5 19.2724V4.72211C20.4941 4.39428 20.3591 4.082 20.1243 3.85317C19.8894 3.62434 19.5738 3.49744 19.2459 3.50006Z" fill="#0076B2"/>
    <path d="M6.01511 9.87253H8.53863V17.9921H6.01511V9.87253ZM7.27757 5.83154C7.567 5.83154 7.84994 5.91739 8.09058 6.07822C8.33121 6.23905 8.51874 6.46764 8.62944 6.73507C8.74014 7.0025 8.76903 7.29676 8.71247 7.58061C8.6559 7.86446 8.51641 8.12516 8.31165 8.32973C8.10689 8.53429 7.84606 8.67353 7.56215 8.72983C7.27824 8.78613 6.98402 8.75695 6.71669 8.646C6.44937 8.53505 6.22096 8.3473 6.06036 8.10651C5.89975 7.86572 5.81418 7.5827 5.81445 7.29326C5.81482 6.90546 5.96914 6.53367 6.24348 6.25959C6.51783 5.9855 6.88977 5.83154 7.27757 5.83154ZM10.1216 9.87253H12.5406V10.9873H12.574C12.9113 10.3491 13.7334 9.67605 14.961 9.67605C17.5166 9.67048 17.9904 11.3524 17.9904 13.5331V17.9921H15.4668V14.0417C15.4668 13.1011 15.4501 11.8902 14.1556 11.8902C12.8611 11.8902 12.6409 12.9158 12.6409 13.9804V17.9921H10.1216V9.87253Z" fill="white"/>
</svg>
