<svg width="32" height="32" viewBox="0 0 32 32" fill="none" xmlns="http://www.w3.org/2000/svg">
    <rect width="32" height="32" fill="#E40523"/>
    <path d="M15.36 10.56C15.36 10.56 15.039 10.56 8.45671 10.56C1.87443 10.56 1.87449 21.44 8.45671 21.44C15.0389 21.44 15.36 21.44 15.36 21.44" stroke="white" stroke-width="2.24"/>
    <path d="M16.9603 10.56C16.9603 10.56 17.2813 10.5601 23.8636 10.56C30.4459 10.56 30.4458 21.44 23.8636 21.44C17.2814 21.44 16.9603 21.44 16.9603 21.44" stroke="white" stroke-width="2.24"/>
    <path d="M18.5606 16C18.5606 16 18.8816 16.0001 25.4639 16" stroke="white" stroke-width="2.24"/>
    <path d="M18.1719 12.5483C18.1719 12.5483 18.1718 12.8694 18.1719 19.4517" stroke="white" stroke-width="2.24"/>
</svg>
