<svg width="262" height="24" viewBox="0 0 262 24" fill="none" xmlns="http://www.w3.org/2000/svg">
<g clip-path="url(#clip0_1195_4165)">
<path d="M18.2558 20.4762C18.2985 20.4762 18.3358 20.4922 18.3678 20.5242L18.5118 20.6522C18.0425 21.1109 17.5358 21.5322 16.9918 21.9162C16.4585 22.2895 15.8718 22.6149 15.2318 22.8922C14.5918 23.1589 13.8878 23.3669 13.1198 23.5162C12.3518 23.6762 11.5038 23.7562 10.5758 23.7562C9.07178 23.7562 7.68511 23.4949 6.41578 22.9722C5.14645 22.4389 4.04778 21.6762 3.11978 20.6842C2.19178 19.6922 1.46645 18.4922 0.943781 17.0842C0.431781 15.6655 0.175781 14.0709 0.175781 12.3002C0.175781 10.5935 0.431781 9.03618 0.943781 7.62818C1.46645 6.22018 2.19711 5.01485 3.13578 4.01218C4.08511 2.99885 5.21578 2.22018 6.52778 1.67618C7.85045 1.12151 9.30645 0.844182 10.8958 0.844182C11.6318 0.844182 12.3251 0.902848 12.9758 1.02018C13.6265 1.12685 14.2398 1.29218 14.8158 1.51618C15.4025 1.74018 15.9625 2.01751 16.4958 2.34818C17.0291 2.66818 17.5518 3.04151 18.0638 3.46818L17.9998 3.56418C17.9785 3.60685 17.9251 3.62818 17.8398 3.62818C17.7651 3.62818 17.5731 3.50018 17.2638 3.24418C16.9651 2.98818 16.5331 2.70551 15.9678 2.39618C15.4025 2.08685 14.6985 1.80418 13.8558 1.54818C13.0238 1.29218 12.0371 1.16418 10.8958 1.16418C9.38111 1.16418 7.98911 1.42551 6.71978 1.94818C5.46111 2.46018 4.37311 3.20151 3.45578 4.17218C2.54911 5.13218 1.83978 6.30018 1.32778 7.67618C0.815781 9.05218 0.559781 10.5935 0.559781 12.3002C0.559781 14.0389 0.810448 15.5962 1.31178 16.9722C1.82378 18.3482 2.52778 19.5162 3.42378 20.4762C4.31978 21.4362 5.37578 22.1722 6.59178 22.6842C7.81845 23.1855 9.14645 23.4362 10.5758 23.4362C11.4825 23.4362 12.2931 23.3722 13.0078 23.2442C13.7225 23.1162 14.3731 22.9295 14.9598 22.6842C15.5571 22.4389 16.1065 22.1402 16.6078 21.7882C17.1198 21.4255 17.6265 21.0149 18.1278 20.5562C18.1811 20.5029 18.2238 20.4762 18.2558 20.4762ZM23.9396 12.3642H28.4516C29.5502 12.3642 30.5369 12.2362 31.4116 11.9802C32.2969 11.7135 33.0489 11.3402 33.6676 10.8602C34.2969 10.3695 34.7769 9.77751 35.1076 9.08418C35.4489 8.38018 35.6196 7.58551 35.6196 6.70018C35.6196 4.87618 35.0276 3.54285 33.8436 2.70018C32.6596 1.84685 30.9582 1.42018 28.7396 1.42018H23.9396V12.3642ZM38.0196 23.5002H37.7636C37.6782 23.5002 37.6089 23.4949 37.5555 23.4842C37.5022 23.4629 37.4329 23.4042 37.3476 23.3082L28.9636 13.2602C28.8782 13.1535 28.7876 13.0629 28.6916 12.9882C28.6062 12.9135 28.5049 12.8549 28.3876 12.8122C28.2809 12.7589 28.1476 12.7269 27.9876 12.7162C27.8382 12.6949 27.6516 12.6842 27.4276 12.6842H23.9396V23.5002H23.5556V1.10018H28.7396C31.0756 1.10018 32.8676 1.55351 34.1156 2.46018C35.3742 3.36685 36.0035 4.78018 36.0035 6.70018C36.0035 7.60685 35.8276 8.42818 35.4756 9.16418C35.1236 9.88951 34.6276 10.5082 33.9876 11.0202C33.3476 11.5322 32.5796 11.9322 31.6836 12.2202C30.7982 12.5082 29.8169 12.6629 28.7396 12.6842C28.8462 12.7269 28.9422 12.7855 29.0276 12.8602C29.1129 12.9242 29.1982 13.0042 29.2836 13.1002L38.0196 23.5002ZM42.8458 23.5002H42.4618V1.10018H42.8458V23.5002ZM60.6423 3.14818C60.6103 3.21218 60.557 3.24418 60.4823 3.24418C60.4076 3.24418 60.317 3.19618 60.2103 3.10018C60.1036 2.99351 59.965 2.86551 59.7943 2.71618C59.6236 2.55618 59.4103 2.38551 59.1543 2.20418C58.909 2.02285 58.6103 1.85751 58.2583 1.70818C57.9063 1.54818 57.501 1.42018 57.0423 1.32418C56.5836 1.21751 56.0556 1.16418 55.4583 1.16418C54.541 1.16418 53.725 1.30818 53.0103 1.59618C52.3063 1.87351 51.7143 2.24685 51.2343 2.71618C50.7543 3.18551 50.3863 3.72951 50.1303 4.34818C49.885 4.96685 49.7623 5.61218 49.7623 6.28418C49.7623 7.14818 49.9276 7.86818 50.2583 8.44418C50.5996 9.02018 51.0423 9.50551 51.5863 9.90018C52.1303 10.2949 52.7543 10.6255 53.4583 10.8922C54.1623 11.1482 54.877 11.3989 55.6023 11.6442C56.3276 11.8789 57.0423 12.1295 57.7463 12.3962C58.4503 12.6629 59.0743 13.0042 59.6183 13.4202C60.1623 13.8255 60.5996 14.3322 60.9303 14.9402C61.2716 15.5375 61.4423 16.2895 61.4423 17.1962C61.4423 18.1135 61.2876 18.9722 60.9783 19.7722C60.669 20.5615 60.221 21.2549 59.6343 21.8522C59.0476 22.4389 58.3276 22.9029 57.4743 23.2442C56.621 23.5855 55.6503 23.7562 54.5623 23.7562C53.805 23.7562 53.1276 23.6869 52.5303 23.5482C51.933 23.4202 51.3836 23.2335 50.8823 22.9882C50.3916 22.7322 49.9383 22.4282 49.5223 22.0762C49.1063 21.7135 48.7063 21.3029 48.3223 20.8442L48.3863 20.7802C48.4183 20.7482 48.445 20.7269 48.4663 20.7162C48.4876 20.6949 48.525 20.6842 48.5783 20.6842C48.6423 20.6842 48.733 20.7535 48.8503 20.8922C48.9783 21.0202 49.149 21.1909 49.3623 21.4042C49.5756 21.6069 49.8316 21.8255 50.1303 22.0602C50.429 22.2949 50.7916 22.5189 51.2183 22.7322C51.645 22.9349 52.1303 23.1055 52.6743 23.2442C53.229 23.3722 53.8583 23.4362 54.5623 23.4362C55.597 23.4362 56.5143 23.2709 57.3143 22.9402C58.125 22.6095 58.8076 22.1669 59.3623 21.6122C59.9276 21.0469 60.3543 20.3909 60.6423 19.6442C60.941 18.8975 61.0903 18.1029 61.0903 17.2602C61.0903 16.5562 60.9783 15.9482 60.7543 15.4362C60.541 14.9242 60.2476 14.4869 59.8743 14.1242C59.501 13.7509 59.0636 13.4362 58.5623 13.1802C58.0716 12.9135 57.5436 12.6789 56.9783 12.4762C56.413 12.2629 55.837 12.0709 55.2503 11.9002C54.6636 11.7189 54.0876 11.5215 53.5223 11.3082C52.957 11.0949 52.4236 10.8549 51.9223 10.5882C51.4316 10.3109 50.9996 9.98018 50.6263 9.59618C50.253 9.20151 49.9543 8.73751 49.7303 8.20418C49.517 7.66018 49.4103 7.02018 49.4103 6.28418C49.4103 5.56951 49.5436 4.88685 49.8103 4.23618C50.077 3.57485 50.4663 2.99351 50.9783 2.49218C51.4903 1.99085 52.1196 1.59085 52.8663 1.29218C53.6236 0.993515 54.4876 0.844182 55.4583 0.844182C56.5463 0.844182 57.5063 1.02018 58.3383 1.37218C59.181 1.72418 59.9703 2.28418 60.7063 3.05218L60.6423 3.14818ZM81.2438 1.45218H72.8278V23.5002H72.4438V1.45218H63.9638V1.10018H81.2438V1.45218ZM85.8146 23.5002H85.4306V1.10018H85.8146V23.5002ZM105.499 15.5322L99.9791 2.28418C99.9257 2.16685 99.8777 2.05485 99.8351 1.94818C99.8031 1.84151 99.7657 1.72951 99.7231 1.61218C99.6804 1.72951 99.6377 1.84151 99.5951 1.94818C99.5631 2.05485 99.5204 2.16685 99.4671 2.28418L93.9471 15.5322H105.499ZM109.227 23.5002H108.939C108.843 23.5002 108.779 23.4469 108.747 23.3402L105.627 15.8522H93.8191L90.6991 23.3402C90.6671 23.4469 90.5924 23.5002 90.4751 23.5002H90.2191L99.5631 1.10018H99.8831L109.227 23.5002ZM130.13 1.10018V23.5002H130.034C129.97 23.5002 129.912 23.4629 129.858 23.3882L113.922 1.69218C113.933 1.76685 113.938 1.83618 113.938 1.90018C113.938 1.96418 113.938 2.02818 113.938 2.09218V23.5002H113.618V1.10018H113.746C113.842 1.10018 113.917 1.14285 113.97 1.22818L129.826 22.8122C129.816 22.7589 129.81 22.7055 129.81 22.6522C129.81 22.5882 129.81 22.5295 129.81 22.4762V1.10018H130.13ZM154.313 19.8202C155.081 19.8202 155.71 19.7295 156.201 19.5482C156.702 19.3562 157.102 19.1055 157.401 18.7962C157.699 18.4869 157.907 18.1349 158.025 17.7402C158.142 17.3349 158.201 16.9189 158.201 16.4922C158.201 16.0229 158.131 15.6015 157.993 15.2282C157.854 14.8549 157.63 14.5402 157.321 14.2842C157.011 14.0175 156.606 13.8149 156.105 13.6762C155.614 13.5375 155.006 13.4682 154.281 13.4682H150.201V19.8202H154.313ZM150.201 3.93218V10.2042H153.353C154.025 10.2042 154.622 10.1509 155.145 10.0442C155.667 9.92685 156.105 9.74551 156.457 9.50018C156.809 9.25485 157.075 8.93485 157.257 8.54018C157.449 8.13485 157.545 7.64951 157.545 7.08418C157.545 6.50818 157.465 6.01751 157.305 5.61218C157.155 5.20685 156.921 4.88151 156.601 4.63618C156.281 4.39085 155.875 4.21485 155.385 4.10818C154.894 3.99085 154.313 3.93218 153.641 3.93218H150.201ZM153.641 0.28418C155.198 0.28418 156.526 0.433514 157.625 0.73218C158.734 1.02018 159.635 1.43618 160.329 1.98018C161.033 2.51351 161.545 3.16418 161.865 3.93218C162.185 4.70018 162.345 5.55885 162.345 6.50818C162.345 7.04151 162.265 7.55351 162.105 8.04418C161.955 8.53485 161.715 8.99885 161.385 9.43618C161.065 9.86285 160.649 10.2522 160.137 10.6042C159.625 10.9562 159.017 11.2549 158.313 11.5002C159.891 11.8735 161.059 12.4815 161.817 13.3242C162.574 14.1669 162.953 15.2602 162.953 16.6042C162.953 17.5855 162.761 18.4975 162.377 19.3402C162.003 20.1829 161.454 20.9135 160.729 21.5322C160.003 22.1509 159.107 22.6362 158.041 22.9882C156.985 23.3295 155.769 23.5002 154.393 23.5002H145.401V0.28418H153.641ZM173.884 11.2762C174.662 11.2762 175.334 11.1802 175.9 10.9882C176.465 10.7855 176.929 10.5135 177.292 10.1722C177.654 9.82018 177.921 9.40951 178.092 8.94018C178.262 8.47085 178.348 7.95885 178.348 7.40418C178.348 6.30551 177.98 5.45218 177.244 4.84418C176.518 4.23618 175.409 3.93218 173.916 3.93218H171.42V11.2762H173.884ZM185.132 23.5002H180.796C179.985 23.5002 179.398 23.1909 179.036 22.5722L174.62 15.4522C174.438 15.1749 174.236 14.9722 174.012 14.8442C173.798 14.7162 173.478 14.6522 173.052 14.6522H171.42V23.5002H166.62V0.28418H173.916C175.537 0.28418 176.924 0.454848 178.076 0.796182C179.228 1.12685 180.172 1.59085 180.908 2.18818C181.644 2.78551 182.182 3.50018 182.524 4.33218C182.865 5.15351 183.036 6.06018 183.036 7.05218C183.036 7.82018 182.924 8.55085 182.7 9.24418C182.486 9.92685 182.172 10.5509 181.756 11.1162C181.34 11.6815 180.828 12.1829 180.22 12.6202C179.612 13.0575 178.918 13.4095 178.14 13.6762C178.449 13.8469 178.737 14.0549 179.004 14.3002C179.27 14.5349 179.51 14.8175 179.724 15.1482L185.132 23.5002ZM192.233 23.5002H187.401V0.28418H192.233V23.5002ZM216.976 0.28418V23.5002H214.496C214.123 23.5002 213.808 23.4415 213.552 23.3242C213.296 23.1962 213.046 22.9829 212.8 22.6842L201.232 7.96418C201.264 8.33751 201.286 8.70551 201.296 9.06818C201.318 9.43085 201.328 9.76685 201.328 10.0762V23.5002H197.088V0.28418H199.616C199.819 0.28418 199.99 0.294847 200.128 0.31618C200.278 0.326847 200.411 0.364181 200.528 0.428181C200.646 0.481515 200.758 0.556181 200.864 0.652181C200.971 0.748181 201.088 0.876181 201.216 1.03618L212.864 15.8202C212.822 15.4149 212.79 15.0255 212.768 14.6522C212.747 14.2682 212.736 13.9055 212.736 13.5642V0.28418H216.976ZM238.046 2.04418C238.046 2.28951 238.004 2.54018 237.918 2.79618C237.844 3.04151 237.732 3.27085 237.582 3.48418L226.126 19.7402H237.726V23.5002H219.966V21.6282C219.966 21.4042 220.004 21.1855 220.078 20.9722C220.153 20.7482 220.26 20.5455 220.398 20.3642L231.886 4.04418H220.782V0.28418H238.046V2.04418ZM253.532 14.6842L251.02 7.58018C250.87 7.20685 250.71 6.76951 250.54 6.26818C250.38 5.76685 250.225 5.22285 250.076 4.63618C249.926 5.23351 249.766 5.78818 249.596 6.30018C249.436 6.80151 249.281 7.23885 249.132 7.61218L246.636 14.6842H253.532ZM261.596 23.5002H257.868C257.452 23.5002 257.11 23.4042 256.844 23.2122C256.588 23.0095 256.396 22.7535 256.268 22.4442L254.7 18.0122H245.452L243.884 22.4442C243.777 22.7109 243.59 22.9562 243.324 23.1802C243.057 23.3935 242.721 23.5002 242.316 23.5002H238.556L247.628 0.28418H252.54L261.596 23.5002Z" fill="black"/>
</g>
<defs>
<clipPath id="clip0_1195_4165">
<rect width="262" height="24" fill="white"/>
</clipPath>
</defs>
</svg>
