<svg width="24" height="24" viewBox="0 0 24 24" fill="none" xmlns="http://www.w3.org/2000/svg">
<path d="M21.283 13.8813C21.1875 13.7855 21.0676 13.7175 20.9363 13.6847C20.805 13.6519 20.6672 13.6554 20.5378 13.695C19.1168 14.1246 17.606 14.1607 16.1661 13.7992C14.7263 13.4377 13.4115 12.6924 12.3618 11.6424C11.3121 10.5925 10.5669 9.27745 10.2055 7.83733C9.8441 6.3972 9.88011 4.88599 10.3097 3.46472C10.3496 3.33522 10.3534 3.19729 10.3207 3.06577C10.2881 2.93426 10.2202 2.81413 10.1244 2.71831C10.0286 2.6225 9.90852 2.55461 9.77704 2.52196C9.64555 2.48931 9.50765 2.49313 9.37817 2.53301C7.41361 3.13494 5.68891 4.34127 4.44948 5.98036C3.36557 7.41972 2.70441 9.13289 2.54029 10.9274C2.37616 12.7219 2.71557 14.5266 3.52039 16.1388C4.3252 17.7509 5.56353 19.1067 7.09625 20.0538C8.62897 21.0008 10.3954 21.5016 12.197 21.5C14.2988 21.5064 16.3447 20.823 18.0208 19.5545C19.6596 18.3148 20.8657 16.5898 21.4675 14.6248C21.5069 14.4958 21.5105 14.3585 21.4781 14.2276C21.4456 14.0966 21.3782 13.9769 21.283 13.8813ZM17.1247 18.3638C15.5463 19.5529 13.5915 20.1317 11.6203 19.9937C9.64906 19.8556 7.79403 19.01 6.39668 17.6125C4.99933 16.2149 4.15374 14.3596 4.01555 12.3879C3.87736 10.4163 4.45589 8.46111 5.64462 6.88226C6.4191 5.85929 7.42036 5.03005 8.56961 4.4598C8.50414 4.91934 8.47114 5.38293 8.47087 5.84712C8.47358 8.4162 9.49513 10.8793 11.3114 12.6959C13.1276 14.5125 15.5902 15.5343 18.1587 15.537C18.6237 15.5368 19.0882 15.5038 19.5485 15.4382C18.9779 16.5879 18.1482 17.5894 17.1247 18.3638Z" fill="black"/>
</svg>
